<?xml version="1.0" standalone="no"?>
<!DOCTYPE svg PUBLIC "-//W3C//DTD SVG 20010904//EN"
 "http://www.w3.org/TR/2001/REC-SVG-20010904/DTD/svg10.dtd">
<svg version="1.0" xmlns="http://www.w3.org/2000/svg"
 width="2133.000000pt" height="2133.000000pt" viewBox="0 0 2133.000000 2133.000000"
 preserveAspectRatio="xMidYMid meet">
<metadata>
Created by potrace 1.14, written by Peter Selinger 2001-2017
</metadata>
<g transform="translate(0.000000,2133.000000) scale(0.100000,-0.100000)"
fill="#000000" stroke="none">
<path d="M10268 21185 c-2 -1 -59 -5 -128 -9 -188 -9 -280 -15 -335 -20 -27
-3 -86 -8 -130 -11 -44 -3 -96 -8 -115 -11 -19 -2 -57 -7 -85 -9 -27 -3 -66
-7 -85 -10 -19 -2 -60 -7 -90 -10 -30 -4 -62 -8 -70 -10 -8 -2 -39 -7 -69 -10
-30 -4 -61 -8 -70 -10 -9 -1 -41 -6 -71 -10 -30 -4 -64 -9 -75 -11 -11 -2 -49
-9 -85 -14 -36 -6 -85 -15 -110 -20 -25 -5 -58 -11 -75 -14 -34 -5 -246 -48
-350 -71 -38 -8 -79 -17 -90 -19 -47 -9 -392 -98 -472 -122 -49 -14 -97 -28
-108 -31 -213 -55 -686 -217 -1005 -345 -386 -155 -883 -391 -1190 -565 -30
-17 -71 -40 -90 -51 -84 -47 -231 -133 -291 -170 -35 -23 -86 -54 -114 -70
-41 -24 -228 -148 -527 -350 -21 -14 -38 -29 -38 -34 0 -4 -5 -8 -11 -8 -11 0
-232 -164 -389 -289 -87 -69 -398 -328 -410 -340 -3 -4 -45 -42 -95 -86 -49
-44 -109 -98 -134 -120 -98 -88 -514 -510 -637 -645 -105 -117 -264 -301 -383
-445 -9 -11 -77 -99 -152 -195 -267 -344 -471 -644 -740 -1088 -145 -239 -442
-817 -559 -1087 -28 -66 -58 -133 -65 -150 -7 -16 -29 -70 -49 -120 -20 -49
-41 -99 -46 -110 -5 -11 -32 -83 -60 -160 -29 -77 -54 -147 -57 -155 -3 -8 -7
-19 -9 -25 -2 -5 -20 -57 -40 -115 -44 -131 -124 -378 -130 -405 -2 -11 -8
-31 -14 -45 -5 -14 -14 -43 -19 -65 -5 -22 -27 -107 -50 -190 -23 -82 -43
-159 -45 -170 -10 -50 -67 -296 -71 -307 -2 -7 -6 -24 -9 -38 -2 -14 -14 -74
-26 -135 -12 -60 -23 -123 -25 -139 -3 -15 -6 -35 -9 -45 -3 -9 -8 -36 -11
-61 -3 -25 -10 -67 -15 -95 -5 -27 -12 -70 -15 -95 -3 -25 -7 -56 -10 -70 -5
-28 -11 -72 -20 -145 -4 -27 -8 -62 -11 -76 -2 -14 -6 -52 -9 -85 -3 -32 -8
-70 -10 -84 -2 -14 -7 -59 -10 -100 -4 -41 -8 -93 -10 -115 -5 -57 -15 -189
-20 -265 -22 -316 -22 -979 0 -1280 2 -30 7 -93 10 -140 3 -47 8 -103 10 -125
2 -22 7 -71 10 -110 3 -38 8 -83 10 -100 3 -16 7 -52 10 -80 11 -100 34 -273
52 -385 3 -19 6 -44 8 -55 1 -11 5 -36 9 -55 7 -43 15 -84 22 -130 3 -19 15
-80 25 -135 11 -55 22 -111 24 -125 7 -45 16 -85 20 -99 5 -12 30 -126 41
-181 3 -14 7 -33 10 -42 3 -9 6 -25 8 -35 2 -10 23 -90 46 -178 23 -88 45
-173 50 -190 15 -60 102 -343 140 -455 132 -393 256 -710 418 -1065 35 -77
283 -574 301 -605 10 -16 80 -141 126 -225 227 -413 633 -1002 1001 -1453 358
-437 808 -899 1269 -1301 499 -435 1174 -909 1750 -1228 50 -28 108 -61 130
-73 146 -84 653 -331 830 -405 17 -7 50 -22 75 -33 25 -11 74 -32 110 -46 36
-15 74 -31 85 -35 179 -74 525 -200 755 -273 69 -22 139 -43 155 -48 17 -5 84
-24 150 -44 198 -58 640 -167 818 -201 15 -3 39 -7 55 -10 15 -3 61 -12 102
-20 100 -19 364 -63 420 -70 25 -3 56 -7 70 -10 14 -2 50 -7 80 -11 30 -3 57
-7 60 -9 3 -2 39 -6 80 -10 41 -3 86 -8 100 -10 78 -9 177 -19 330 -31 41 -3
91 -7 110 -9 275 -27 1218 -27 1500 0 19 2 76 6 125 10 50 4 104 8 120 9 105
10 184 18 210 21 50 6 128 16 167 21 21 3 50 6 65 8 15 2 52 7 82 11 30 4 61
8 70 10 9 1 52 8 96 15 44 7 89 14 100 16 11 2 34 6 50 9 17 2 68 11 115 20
47 9 99 19 115 21 87 15 423 90 579 130 447 113 996 289 1321 425 17 6 35 13
40 15 11 3 255 105 325 136 365 163 681 322 1012 512 168 96 449 265 458 276
3 3 37 25 75 49 244 152 789 555 1034 766 45 38 195 169 207 180 312 277 571
535 885 880 120 131 355 416 514 620 208 269 454 633 685 1015 31 50 102 174
130 225 66 119 78 141 115 210 139 254 324 652 455 975 23 58 48 119 55 135
42 99 175 480 239 685 89 286 225 810 253 975 5 32 29 156 37 191 5 24 43 250
51 309 4 22 12 81 20 130 8 50 17 115 20 145 3 30 8 75 12 100 7 56 10 80 17
155 14 133 16 153 21 240 3 50 8 101 10 114 26 151 26 1230 0 1446 -2 17 -6
71 -10 120 -3 50 -8 106 -10 125 -2 19 -6 67 -9 105 -4 39 -9 84 -11 100 -4
28 -6 47 -20 170 -3 28 -8 57 -10 65 -2 8 -7 41 -10 73 -4 32 -8 68 -11 80 -2
11 -6 37 -9 57 -3 20 -8 47 -10 60 -3 14 -7 41 -10 60 -3 19 -7 46 -10 60 -3
14 -10 52 -15 85 -5 33 -12 69 -14 80 -2 11 -11 56 -20 100 -168 822 -423
1593 -778 2355 -136 291 -335 664 -502 938 -31 51 -56 95 -56 97 0 2 -13 24
-29 47 -16 24 -77 117 -136 208 -87 132 -268 395 -307 445 -4 6 -54 71 -110
145 -139 185 -394 497 -503 616 -5 6 -44 49 -85 94 -137 152 -340 360 -532
545 -129 124 -155 149 -298 275 -47 41 -87 78 -90 81 -3 3 -65 56 -138 117
-254 212 -558 442 -827 624 -66 45 -121 85 -123 90 -2 4 -8 8 -12 8 -5 0 -60
33 -122 74 -127 82 -426 263 -533 321 -38 20 -74 41 -80 45 -19 13 -250 133
-415 215 -638 317 -1281 559 -2000 754 -194 52 -571 139 -725 166 -49 9 -137
24 -195 35 -58 10 -125 21 -150 25 -25 3 -52 8 -60 10 -8 2 -40 7 -70 10 -30
3 -62 8 -70 10 -13 3 -81 13 -150 20 -14 2 -52 6 -85 10 -33 3 -76 8 -95 11
-19 2 -60 6 -90 9 -30 3 -80 7 -110 10 -93 9 -161 15 -265 21 -55 3 -122 8
-150 10 -56 5 -952 13 -957 9z"/>
</g>
</svg>
